<svg id="Layer_1" data-name="Layer 1" xmlns="http://www.w3.org/2000/svg" viewBox="0 0 512 512"><defs><style>.cls-1{fill:#898989;}</style></defs><title>arrow-right-other</title><path class="cls-1" d="M256,512C114.84,512,0,397.16,0,256S114.84,0,256,0,512,114.84,512,256,397.16,512,256,512Zm0-500.62C121.12,11.38,11.38,121.12,11.38,256S121.12,500.62,256,500.62,500.62,390.88,500.62,256,390.88,11.38,256,11.38Z"/><path class="cls-1" d="M278.76,330a5.69,5.69,0,0,1-4-9.71L339,256l-64.24-64.24a5.69,5.69,0,0,1,8-8L351,252a5.69,5.69,0,0,1,0,8l-68.27,68.27A5.67,5.67,0,0,1,278.76,330Z"/><path class="cls-1" d="M347,261.69H119.47a5.69,5.69,0,0,1,0-11.38H347a5.69,5.69,0,0,1,0,11.38Z"/></svg>